<?xml version="1.0" encoding="UTF-8"?>
<svg xmlns="http://www.w3.org/2000/svg" width="1140" height="620" viewBox="0 0 1140 620">
  <defs>
    <marker id="arrowhead" markerWidth="10" markerHeight="8" refX="9" refY="4" orient="auto">
      <path d="M 0 0 L 10 4 L 0 8 z" fill="#35536b"/>
    </marker>
    <filter id="shadow" x="-10%" y="-20%" width="120%" height="150%">
      <feDropShadow dx="0" dy="4" stdDeviation="4" flood-color="#8aa0b3" flood-opacity="0.28"/>
    </filter>
  </defs>
  <style>
    .bg { fill: #fbfdff; }
    .heading { font: 700 28px "Microsoft YaHei", "Noto Sans CJK SC", Arial, sans-serif; fill: #17324d; }
    .box { stroke: #7aa0bd; stroke-width: 1.5; filter: url(#shadow); }
    .title { font: 700 17px "Microsoft YaHei", "Noto Sans CJK SC", Arial, sans-serif; fill: #18334d; text-anchor: middle; }
    .body { font: 13px "Microsoft YaHei", "Noto Sans CJK SC", Arial, sans-serif; fill: #36546c; text-anchor: middle; }
    .arrow { stroke: #35536b; stroke-width: 2.1; fill: none; }
  </style>
  <rect width="100%" height="100%" class="bg"/>
  <text x="570" y="38" class="heading" text-anchor="middle">构建、测试与课程提交流程图</text>
  <path d="M 260 116 L 340 116" class="arrow" marker-end="url(#arrowhead)" />
<path d="M 530 116 L 610 116" class="arrow" marker-end="url(#arrowhead)" />
<path d="M 800 116 L 880 116" class="arrow" marker-end="url(#arrowhead)" />
<path d="M 165 152 L 360 285" class="arrow" marker-end="url(#arrowhead)" />
<path d="M 260 116 L 570 323" class="arrow" marker-end="url(#arrowhead)" />
<path d="M 360 361 L 545 470" class="arrow" marker-end="url(#arrowhead)" />
<path d="M 680 361 L 545 470" class="arrow" marker-end="url(#arrowhead)" />
<path d="M 880 116 L 670 508" class="arrow" marker-end="url(#arrowhead)" />
  <g>
  <rect x="70" y="80" width="190" height="72" rx="14" fill="#e8f7ff" class="box" />
  <text x="165" y="107" class="title">源代码</text>
  <text x="165" y="124" class="body">src / public / electron</text>
</g>
<g>
  <rect x="340" y="80" width="190" height="72" rx="14" fill="#effbf5" class="box" />
  <text x="435" y="107" class="title">单元测试</text>
  <text x="435" y="124" class="body">npm test</text>
<text x="435" y="144" class="body">23 个测试</text>
</g>
<g>
  <rect x="610" y="80" width="190" height="72" rx="14" fill="#fff6df" class="box" />
  <text x="705" y="107" class="title">网页构建</text>
  <text x="705" y="124" class="body">npm run build</text>
<text x="705" y="144" class="body">dist 静态资源</text>
</g>
<g>
  <rect x="880" y="80" width="200" height="72" rx="14" fill="#f8f0ff" class="box" />
  <text x="980" y="107" class="title">免安装程序</text>
  <text x="980" y="124" class="body">Electron Builder</text>
<text x="980" y="144" class="body">release/*.exe</text>
</g>
<g>
  <rect x="250" y="285" width="220" height="76" rx="14" fill="#f0f7ff" class="box" />
  <text x="360" y="312" class="title">课程考核报告书</text>
  <text x="360" y="329" class="body">需求分析</text>
<text x="360" y="349" class="body">系统设计思路</text>
</g>
<g>
  <rect x="570" y="285" width="220" height="76" rx="14" fill="#f2f8e9" class="box" />
  <text x="680" y="312" class="title">GitHub 源码仓库</text>
  <text x="680" y="329" class="body">README</text>
<text x="680" y="349" class="body">源代码</text>
<text x="680" y="369" class="body">精简模型资源</text>
</g>
<g>
  <rect x="420" y="470" width="250" height="76" rx="14" fill="#edf7f7" class="box" />
  <text x="545" y="497" class="title">最终提交材料</text>
  <text x="545" y="514" class="body">报告书 + exe + 源代码</text>
<text x="545" y="534" class="body">小组分工说明</text>
</g>
</svg>